<svg width="100" height="20" viewBox="0 0 100 20" fill="none" xmlns="http://www.w3.org/2000/svg">
<path d="M27.4773 19C31.9091 19 34.6577 16.2656 34.6577 11.7202C34.6577 7.18182 31.9091 4.45455 27.4702 4.45455H22.1009V19H27.4773ZM25.6165 16.0028V7.4517H27.2926C29.7926 7.4517 31.1349 8.58807 31.1349 11.7202C31.1349 14.8665 29.7926 16.0028 27.3423 16.0028H25.6165ZM39.7855 19.1847C41.3054 19.1847 42.3565 18.5952 42.9531 17.4801H43.0384V19H46.3054V11.5852C46.3054 9.27699 44.2528 7.94886 41.4759 7.94886C38.5426 7.94886 36.8807 9.42614 36.6037 11.4148L39.8068 11.5284C39.956 10.8324 40.5312 10.4062 41.4474 10.4062C42.2997 10.4062 42.8395 10.8182 42.8395 11.5497V11.5852C42.8395 12.2528 42.1151 12.3949 40.2543 12.5582C38.0455 12.7429 36.1989 13.5597 36.1989 15.9744C36.1989 18.1335 37.6974 19.1847 39.7855 19.1847ZM40.858 16.9119C40.0554 16.9119 39.4872 16.5284 39.4872 15.804C39.4872 15.1009 40.0412 14.6747 41.0284 14.5256C41.6747 14.4332 42.4702 14.2912 42.8608 14.0852V15.1222C42.8608 16.1875 41.9659 16.9119 40.858 16.9119ZM57.9531 11.4219C57.7685 9.26278 56 7.94886 53.0455 7.94886C50.0909 7.94886 48.2088 9.23438 48.223 11.4219C48.2088 13.098 49.2812 14.1776 51.4616 14.5824L53.3651 14.9446C54.267 15.1222 54.679 15.4062 54.6932 15.8892C54.679 16.4361 54.0682 16.7983 53.1804 16.7983C52.1932 16.7983 51.5256 16.3722 51.3764 15.5767L47.946 15.6619C48.1946 17.821 50.0483 19.206 53.1662 19.206C56.0852 19.206 58.2088 17.75 58.223 15.5057C58.2088 13.9148 57.1577 12.9702 54.9844 12.5511L52.8821 12.1534C51.9588 11.9688 51.6605 11.642 51.6676 11.223C51.6605 10.669 52.3068 10.3281 53.1094 10.3281C54.0256 10.3281 54.6648 10.8182 54.7642 11.5071L57.9531 11.4219ZM63.4059 12.7784C63.413 11.5355 64.1516 10.7969 65.2525 10.7969C66.3675 10.7969 67.0138 11.5142 67.0067 12.7287V19H70.4798V12.0469C70.4869 9.57528 68.9812 7.94886 66.6871 7.94886C65.0536 7.94886 63.9031 8.75142 63.413 10.0938H63.2923V4.45455H59.9329V19H63.4059V12.7784ZM78.8054 8.09091H76.8381V5.47727H73.3651V8.09091H71.9233V10.6477H73.3651V15.9531C73.3438 18.1619 74.7784 19.2699 77.2287 19.1562C78.0668 19.1136 78.6705 18.9432 79.0043 18.8438L78.4787 16.3366C78.3295 16.3722 77.9815 16.4432 77.7188 16.4432C77.1577 16.4432 76.8381 16.2159 76.8381 15.5696V10.6477H78.8054V8.09091ZM83.6527 19.1847C85.1726 19.1847 86.2237 18.5952 86.8203 17.4801H86.9055V19H90.1726V11.5852C90.1726 9.27699 88.12 7.94886 85.343 7.94886C82.4098 7.94886 80.7479 9.42614 80.4709 11.4148L83.674 11.5284C83.8232 10.8324 84.3984 10.4062 85.3146 10.4062C86.1669 10.4062 86.7067 10.8182 86.7067 11.5497V11.5852C86.7067 12.2528 85.9822 12.3949 84.1214 12.5582C81.9126 12.7429 80.0661 13.5597 80.0661 15.9744C80.0661 18.1335 81.5646 19.1847 83.6527 19.1847ZM84.7251 16.9119C83.9226 16.9119 83.3544 16.5284 83.3544 15.804C83.3544 15.1009 83.9084 14.6747 84.8956 14.5256C85.5419 14.4332 86.3374 14.2912 86.728 14.0852V15.1222C86.728 16.1875 85.8331 16.9119 84.7251 16.9119ZM92.2962 19H95.7692V13.0767C95.7692 11.777 96.6925 10.9034 97.9354 10.9034C98.3473 10.9034 98.9652 10.9744 99.299 11.0881V8.0696C99.0078 7.99148 98.6456 7.94176 98.326 7.94176C97.1328 7.94176 96.1811 8.63778 95.7834 10.0795H95.6697V8.09091H92.2962V19Z" fill="#F2F2F2"/>
<g clip-path="url(#clip0_138:2)">
<path d="M12.5714 6.42852V5.28566C12.5714 2.76495 10.5207 0.714233 8 0.714233C5.47929 0.714233 3.42857 2.76495 3.42857 5.28566V6.42852H0V16.1428C0 17.7208 1.27918 18.9999 2.85714 18.9999H13.1429C14.7208 18.9999 16 17.7208 16 16.1428V6.42852H12.5714ZM5.71429 5.28566C5.71429 4.0253 6.73964 2.99995 8 2.99995C9.26036 2.99995 10.2857 4.0253 10.2857 5.28566V6.42852H5.71429V5.28566ZM11.4286 9.57138C10.9552 9.57138 10.5714 9.18763 10.5714 8.71423C10.5714 8.24084 10.9552 7.85709 11.4286 7.85709C11.902 7.85709 12.2857 8.24084 12.2857 8.71423C12.2857 9.18763 11.902 9.57138 11.4286 9.57138ZM4.57143 9.57138C4.09804 9.57138 3.71429 9.18763 3.71429 8.71423C3.71429 8.24084 4.09804 7.85709 4.57143 7.85709C5.04482 7.85709 5.42857 8.24084 5.42857 8.71423C5.42857 9.18763 5.04482 9.57138 4.57143 9.57138Z" fill="#10B981"/>
</g>
<defs>
<clipPath id="clip0_138:2">
<rect width="16" height="18.2857" fill="white" transform="translate(0 0.714233)"/>
</clipPath>
</defs>
</svg>
