<svg width="100" height="20" viewBox="0 0 100 20" fill="none" xmlns="http://www.w3.org/2000/svg">
<path d="M27.4773 18.2858C31.9091 18.2858 34.6577 15.5514 34.6577 11.0059C34.6577 6.46758 31.9091 3.74031 27.4702 3.74031H22.1009V18.2858H27.4773ZM25.6165 15.2886V6.73747H27.2926C29.7926 6.73747 31.1349 7.87383 31.1349 11.0059C31.1349 14.1522 29.7926 15.2886 27.3423 15.2886H25.6165ZM39.7855 18.4704C41.3054 18.4704 42.3565 17.8809 42.9531 16.7659H43.0384V18.2858H46.3054V10.871C46.3054 8.56275 44.2528 7.23463 41.4759 7.23463C38.5426 7.23463 36.8807 8.7119 36.6037 10.7005L39.8068 10.8142C39.956 10.1182 40.5312 9.69202 41.4474 9.69202C42.2997 9.69202 42.8395 10.1039 42.8395 10.8355V10.871C42.8395 11.5386 42.1151 11.6807 40.2543 11.844C38.0455 12.0287 36.1989 12.8454 36.1989 15.2602C36.1989 17.4193 37.6974 18.4704 39.7855 18.4704ZM40.858 16.1977C40.0554 16.1977 39.4872 15.8142 39.4872 15.0897C39.4872 14.3866 40.0412 13.9605 41.0284 13.8113C41.6747 13.719 42.4702 13.577 42.8608 13.371V14.4079C42.8608 15.4733 41.9659 16.1977 40.858 16.1977ZM57.9531 10.7076C57.7685 8.54855 56 7.23463 53.0455 7.23463C50.0909 7.23463 48.2088 8.52014 48.223 10.7076C48.2088 12.3838 49.2812 13.4633 51.4616 13.8682L53.3651 14.2304C54.267 14.4079 54.679 14.692 54.6932 15.175C54.679 15.7218 54.0682 16.0841 53.1804 16.0841C52.1932 16.0841 51.5256 15.6579 51.3764 14.8625L47.946 14.9477C48.1946 17.1068 50.0483 18.4917 53.1662 18.4917C56.0852 18.4917 58.2088 17.0358 58.223 14.7914C58.2088 13.2005 57.1577 12.2559 54.9844 11.8369L52.8821 11.4392C51.9588 11.2545 51.6605 10.9278 51.6676 10.5088C51.6605 9.9548 52.3068 9.61389 53.1094 9.61389C54.0256 9.61389 54.6648 10.1039 54.7642 10.7929L57.9531 10.7076ZM63.4059 12.0642C63.413 10.8213 64.1516 10.0826 65.2525 10.0826C66.3675 10.0826 67.0138 10.8 67.0067 12.0145V18.2858H70.4798V11.3326C70.4869 8.86105 68.9812 7.23463 66.6871 7.23463C65.0536 7.23463 63.9031 8.03719 63.413 9.37952H63.2923V3.74031H59.9329V18.2858H63.4059V12.0642ZM78.8054 7.37668H76.8381V4.76304H73.3651V7.37668H71.9233V9.93349H73.3651V15.2389C73.3438 17.4477 74.7784 18.5557 77.2287 18.442C78.0668 18.3994 78.6705 18.2289 79.0043 18.1295L78.4787 15.6224C78.3295 15.6579 77.9815 15.7289 77.7188 15.7289C77.1577 15.7289 76.8381 15.5017 76.8381 14.8554V9.93349H78.8054V7.37668ZM83.6527 18.4704C85.1726 18.4704 86.2237 17.8809 86.8203 16.7659H86.9055V18.2858H90.1726V10.871C90.1726 8.56275 88.12 7.23463 85.343 7.23463C82.4098 7.23463 80.7479 8.7119 80.4709 10.7005L83.674 10.8142C83.8232 10.1182 84.3984 9.69202 85.3146 9.69202C86.1669 9.69202 86.7067 10.1039 86.7067 10.8355V10.871C86.7067 11.5386 85.9822 11.6807 84.1214 11.844C81.9126 12.0287 80.0661 12.8454 80.0661 15.2602C80.0661 17.4193 81.5646 18.4704 83.6527 18.4704ZM84.7251 16.1977C83.9226 16.1977 83.3544 15.8142 83.3544 15.0897C83.3544 14.3866 83.9084 13.9605 84.8956 13.8113C85.5419 13.719 86.3374 13.577 86.728 13.371V14.4079C86.728 15.4733 85.8331 16.1977 84.7251 16.1977ZM92.2962 18.2858H95.7692V12.3625C95.7692 11.0628 96.6925 10.1892 97.9354 10.1892C98.3473 10.1892 98.9652 10.2602 99.299 10.3738V7.35537C99.0078 7.27724 98.6456 7.22753 98.326 7.22753C97.1328 7.22753 96.1811 7.92355 95.7834 9.36531H95.6697V7.37668H92.2962V18.2858Z" fill="#333232"/>
<g clip-path="url(#clip0_140:23)">
<path d="M12.5714 5.71429V4.57143C12.5714 2.05071 10.5207 0 8 0C5.47929 0 3.42857 2.05071 3.42857 4.57143V5.71429H0V15.4286C0 17.0065 1.27918 18.2857 2.85714 18.2857H13.1429C14.7208 18.2857 16 17.0065 16 15.4286V5.71429H12.5714ZM5.71429 4.57143C5.71429 3.31107 6.73964 2.28571 8 2.28571C9.26036 2.28571 10.2857 3.31107 10.2857 4.57143V5.71429H5.71429V4.57143ZM11.4286 8.85714C10.9552 8.85714 10.5714 8.47339 10.5714 8C10.5714 7.52661 10.9552 7.14286 11.4286 7.14286C11.902 7.14286 12.2857 7.52661 12.2857 8C12.2857 8.47339 11.902 8.85714 11.4286 8.85714ZM4.57143 8.85714C4.09804 8.85714 3.71429 8.47339 3.71429 8C3.71429 7.52661 4.09804 7.14286 4.57143 7.14286C5.04482 7.14286 5.42857 7.52661 5.42857 8C5.42857 8.47339 5.04482 8.85714 4.57143 8.85714Z" fill="#10B981"/>
</g>
<defs>
<clipPath id="clip0_140:23">
<rect width="16" height="18.2857" fill="white"/>
</clipPath>
</defs>
</svg>
