<svg width="229" height="35" viewBox="0 0 229 35" fill="none" xmlns="http://www.w3.org/2000/svg">
<path d="M39.7614 31H45.3864V24.6932L47.6364 21.8523L53.4318 31H60.1591L51.7614 18.1136L60.0114 7.72727H53.3864L45.6932 17.5682H45.3864V7.72727H39.7614V31ZM67.1506 31.2955C69.5824 31.2955 71.2642 30.3523 72.2188 28.5682H72.3551V31H77.5824V19.1364C77.5824 15.4432 74.2983 13.3182 69.8551 13.3182C65.1619 13.3182 62.5028 15.6818 62.0597 18.8636L67.1847 19.0455C67.4233 17.9318 68.3438 17.25 69.8097 17.25C71.1733 17.25 72.0369 17.9091 72.0369 19.0795V19.1364C72.0369 20.2045 70.8778 20.4318 67.9006 20.6932C64.3665 20.9886 61.4119 22.2955 61.4119 26.1591C61.4119 29.6136 63.8097 31.2955 67.1506 31.2955ZM68.8665 27.6591C67.5824 27.6591 66.6733 27.0455 66.6733 25.8864C66.6733 24.7614 67.5597 24.0795 69.1392 23.8409C70.1733 23.6932 71.446 23.4659 72.071 23.1364V24.7955C72.071 26.5 70.6392 27.6591 68.8665 27.6591ZM89.1278 31.3295C94.0369 31.3295 97.0824 28.4773 97.2301 24.1591H92.0369C91.8324 26.0114 90.7188 27.0227 89.196 27.0227C87.2415 27.0227 85.9688 25.375 85.9688 22.2727C85.9688 19.1932 87.2528 17.5455 89.196 17.5455C90.7869 17.5455 91.821 18.625 92.0369 20.4091H97.2301C97.1051 16.1136 93.9688 13.3182 89.1165 13.3182C83.6278 13.3182 80.3097 16.9773 80.3097 22.3295C80.3097 27.6591 83.6051 31.3295 89.1278 31.3295ZM105.631 21.0455C105.642 19.0568 106.824 17.875 108.585 17.875C110.369 17.875 111.403 19.0227 111.392 20.9659V31H116.949V19.875C116.96 15.9205 114.551 13.3182 110.881 13.3182C108.267 13.3182 106.426 14.6023 105.642 16.75H105.449V7.72727H100.074V31H105.631V21.0455ZM125.338 31.2955C127.77 31.2955 129.452 30.3523 130.406 28.5682H130.543V31H135.77V19.1364C135.77 15.4432 132.486 13.3182 128.043 13.3182C123.349 13.3182 120.69 15.6818 120.247 18.8636L125.372 19.0455C125.611 17.9318 126.531 17.25 127.997 17.25C129.361 17.25 130.224 17.9091 130.224 19.0795V19.1364C130.224 20.2045 129.065 20.4318 126.088 20.6932C122.554 20.9886 119.599 22.2955 119.599 26.1591C119.599 29.6136 121.997 31.2955 125.338 31.2955ZM127.054 27.6591C125.77 27.6591 124.861 27.0455 124.861 25.8864C124.861 24.7614 125.747 24.0795 127.327 23.8409C128.361 23.6932 129.634 23.4659 130.259 23.1364V24.7955C130.259 26.5 128.827 27.6591 127.054 27.6591ZM139.168 31H149.611C154.759 31 157.713 28.25 157.713 24.4886C157.713 21.125 155.27 19.0114 152.452 18.8864V18.6591C155.009 18.125 156.804 16.2727 156.804 13.6136C156.804 10.1023 154.099 7.72727 148.872 7.72727H139.168V31ZM144.793 26.4659V20.9205H148.372C150.52 20.9205 151.838 22.0568 151.838 23.8409C151.838 25.4886 150.702 26.4659 148.27 26.4659H144.793ZM144.793 17.2955V12.1932H147.997C149.872 12.1932 151.065 13.1591 151.065 14.7045C151.065 16.3409 149.747 17.2955 147.906 17.2955H144.793ZM165.338 31.2955C167.77 31.2955 169.452 30.3523 170.406 28.5682H170.543V31H175.77V19.1364C175.77 15.4432 172.486 13.3182 168.043 13.3182C163.349 13.3182 160.69 15.6818 160.247 18.8636L165.372 19.0455C165.611 17.9318 166.531 17.25 167.997 17.25C169.361 17.25 170.224 17.9091 170.224 19.0795V19.1364C170.224 20.2045 169.065 20.4318 166.088 20.6932C162.554 20.9886 159.599 22.2955 159.599 26.1591C159.599 29.6136 161.997 31.2955 165.338 31.2955ZM167.054 27.6591C165.77 27.6591 164.861 27.0455 164.861 25.8864C164.861 24.7614 165.747 24.0795 167.327 23.8409C168.361 23.6932 169.634 23.4659 170.259 23.1364V24.7955C170.259 26.5 168.827 27.6591 167.054 27.6591ZM179.213 31H194.202V26.6818H186.429V26.5682L193.929 17.0227V13.5455H179.497V17.8636H187.304V17.9773L179.213 27.8295V31ZM202.713 31.2955C205.145 31.2955 206.827 30.3523 207.781 28.5682H207.918V31H213.145V19.1364C213.145 15.4432 209.861 13.3182 205.418 13.3182C200.724 13.3182 198.065 15.6818 197.622 18.8636L202.747 19.0455C202.986 17.9318 203.906 17.25 205.372 17.25C206.736 17.25 207.599 17.9091 207.599 19.0795V19.1364C207.599 20.2045 206.44 20.4318 203.463 20.6932C199.929 20.9886 196.974 22.2955 196.974 26.1591C196.974 29.6136 199.372 31.2955 202.713 31.2955ZM204.429 27.6591C203.145 27.6591 202.236 27.0455 202.236 25.8864C202.236 24.7614 203.122 24.0795 204.702 23.8409C205.736 23.6932 207.009 23.4659 207.634 23.1364V24.7955C207.634 26.5 206.202 27.6591 204.429 27.6591ZM216.543 31H222.099V21.5227C222.099 19.4432 223.577 18.0455 225.565 18.0455C226.224 18.0455 227.213 18.1591 227.747 18.3409V13.5114C227.281 13.3864 226.702 13.3068 226.19 13.3068C224.281 13.3068 222.759 14.4205 222.122 16.7273H221.94V13.5455H216.543V31Z" fill="#334155"/>
<g clip-path="url(#clip0)">
<path d="M21.8036 9.91071V7.92857C21.8036 3.55671 18.2468 0 13.875 0C9.50314 0 5.94643 3.55671 5.94643 7.92857V9.91071H0V26.7589C0 29.4957 2.21858 31.7143 4.95536 31.7143H22.7946C25.5314 31.7143 27.75 29.4957 27.75 26.7589V9.91071H21.8036ZM9.91071 7.92857C9.91071 5.74264 11.6891 3.96429 13.875 3.96429C16.0609 3.96429 17.8393 5.74264 17.8393 7.92857V9.91071H9.91071V7.92857ZM19.8214 15.3616C19.0004 15.3616 18.3348 14.696 18.3348 13.875C18.3348 13.054 19.0004 12.3884 19.8214 12.3884C20.6425 12.3884 21.308 13.054 21.308 13.875C21.308 14.696 20.6425 15.3616 19.8214 15.3616ZM7.92857 15.3616C7.10753 15.3616 6.44196 14.696 6.44196 13.875C6.44196 13.054 7.10753 12.3884 7.92857 12.3884C8.74961 12.3884 9.41518 13.054 9.41518 13.875C9.41518 14.696 8.74961 15.3616 7.92857 15.3616Z" fill="#10B981"/>
</g>
<defs>
<clipPath id="clip0">
<rect width="27.75" height="31.7143" fill="white"/>
</clipPath>
</defs>
</svg>
